<?xml version="1.0" encoding="UTF-8" standalone="no"?>
<svg width="750" height="1050" viewBox="0 0 750 1050" xmlns="http://www.w3.org/2000/svg">
  <!-- Card Background -->
  <defs>
    <linearGradient id="cardGradient" x1="0%" y1="0%" x2="100%" y2="100%">
      <stop offset="0%" style="stop-color:#2c3e50;stop-opacity:1" />
      <stop offset="100%" style="stop-color:#3498db;stop-opacity:1" />
    </linearGradient>
    <filter id="cardGlow">
      <feGaussianBlur stdDeviation="5" result="blur" />
      <feComposite in="blur" operator="over" in2="SourceGraphic" />
    </filter>
  </defs>

  <!-- Main Card Frame -->
  <rect x="0" y="0" width="750" height="1050" rx="37.5" ry="37.5" 
        fill="url(#cardGradient)" filter="url(#cardGlow)" />

  <!-- Inner Frame -->
  <rect x="30" y="30" width="690" height="990" rx="30" ry="30" 
        fill="none" stroke="#e8c170" stroke-width="2" />

  <!-- Art Frame -->
  <path d="M75,120 L675,120 L675,620 L75,620 Z" 
        fill="none" stroke="#e8c170" stroke-width="3" />

  <!-- Essence Circle -->
  <circle cx="105" cy="90" r="45" 
          fill="none" stroke="#e8c170" stroke-width="3" />

  <!-- Stats Frame -->
  <rect x="75" y="750" width="600" height="100" rx="15" ry="15" 
        fill="none" stroke="#e8c170" stroke-width="2" />

  <!-- Effect Text Frame -->
  <rect x="75" y="870" width="600" height="150" rx="15" ry="15" 
        fill="none" stroke="#e8c170" stroke-width="2" />

  <!-- Decorative Corner Elements -->
  <path d="M30,30 L80,30 M30,30 L30,80" stroke="#e8c170" stroke-width="4" />
  <path d="M720,30 L670,30 M720,30 L720,80" stroke="#e8c170" stroke-width="4" />
  <path d="M30,1020 L80,1020 M30,1020 L30,970" stroke="#e8c170" stroke-width="4" />
  <path d="M720,1020 L670,1020 M720,1020 L720,970" stroke="#e8c170" stroke-width="4" />
</svg>
