<?xml version="1.0" encoding="UTF-8" standalone="no"?>
<svg width="750" height="1050" viewBox="0 0 750 1050" xmlns="http://www.w3.org/2000/svg">
  <!-- Card Background -->
  <defs>
    <linearGradient id="dimensionalGradient" x1="0%" y1="0%" x2="100%" y2="100%">
      <stop offset="0%" style="stop-color:#6c3483;stop-opacity:1" />
      <stop offset="50%" style="stop-color:#9b59b6;stop-opacity:1" />
      <stop offset="100%" style="stop-color:#8e44ad;stop-opacity:1" />
    </linearGradient>
    <filter id="dimensionalGlow">
      <feGaussianBlur stdDeviation="8" result="blur" />
      <feComposite in="blur" operator="over" in2="SourceGraphic" />
    </filter>
    <pattern id="dimensionalPattern" width="30" height="30" patternUnits="userSpaceOnUse">
      <circle cx="15" cy="15" r="1" fill="#9b59b6" fill-opacity="0.5" />
    </pattern>
  </defs>

  <!-- Main Card Frame -->
  <rect x="0" y="0" width="750" height="1050" rx="37.5" ry="37.5" 
        fill="url(#dimensionalGradient)" filter="url(#dimensionalGlow)" />

  <!-- Pattern Overlay -->
  <rect x="0" y="0" width="750" height="1050" rx="37.5" ry="37.5" 
        fill="url(#dimensionalPattern)" />

  <!-- Inner Frame -->
  <rect x="30" y="30" width="690" height="990" rx="30" ry="30" 
        fill="none" stroke="#d2b4de" stroke-width="2" />

  <!-- Art Frame - Portal Style -->
  <ellipse cx="375" cy="370" rx="300" ry="250" 
           fill="none" stroke="#d2b4de" stroke-width="3" />
  <ellipse cx="375" cy="370" rx="290" ry="240" 
           fill="none" stroke="#d2b4de" stroke-width="1" />
  <ellipse cx="375" cy="370" rx="280" ry="230" 
           fill="none" stroke="#d2b4de" stroke-width="1" />

  <!-- Effect Text Frame -->
  <rect x="75" y="650" width="600" height="350" rx="15" ry="15" 
        fill="none" stroke="#d2b4de" stroke-width="2" />

  <!-- Decorative Elements -->
  <path d="M30,30 L80,30 M30,30 L30,80" stroke="#d2b4de" stroke-width="4" />
  <path d="M720,30 L670,30 M720,30 L720,80" stroke="#d2b4de" stroke-width="4" />
  <path d="M30,1020 L80,1020 M30,1020 L30,970" stroke="#d2b4de" stroke-width="4" />
  <path d="M720,1020 L670,1020 M720,1020 L720,970" stroke="#d2b4de" stroke-width="4" />

  <!-- Dimensional Runes -->
  <path d="M375,120 L375,620" stroke="#d2b4de" stroke-width="1" stroke-dasharray="10,10" />
  <path d="M75,370 L675,370" stroke="#d2b4de" stroke-width="1" stroke-dasharray="10,10" />
</svg>
